<svg xmlns="http://www.w3.org/2000/svg" version="1" viewBox="0 0 5270 1770">
  <g fill="#fff">
    <path d="M67 1743c-20-20 17-103 79-179 73-89 201-141 322-131 35 3 60 1 55-4-4-4-40-22-80-38-63-27-84-31-165-31-82 0-100 3-154 29-34 16-65 34-68 40-4 6-18 11-32 11-20 0-24-5-24-33s6-36 52-63c71-41 191-68 266-60 60 7 137 27 171 46 39 20 21 3-36-37-87-59-143-77-248-77-49-1-116 3-148 7l-58 9 3-34c3-32 6-34 68-50 87-22 141-22 230 1 41 11 76 19 77 17 2-2-9-20-24-42-46-65-70-115-87-185-20-81-20-112-1-198 14-60 14-70 0-97-8-16-15-34-15-41s-27-19-59-29C49 535-28 391 15 245 47 132 120 71 234 63c89-7 141 7 193 52 57 49 87 101 93 162l5 51 44-15c33-11 64-13 115-9 90 9 115 9 200 0 46-4 81-2 107 6 22 7 42 11 45 7 3-3 8-24 11-47 13-94 113-194 208-205 138-18 232 27 288 138 77 150 1 320-165 373-32 10-58 22-58 28s-7 24-15 40c-14 27-14 37 0 97 19 86 19 117-1 198-17 70-41 120-87 185-15 22-26 40-24 42 1 2 36-6 77-17 88-23 141-23 235-1 67 17 70 18 70 47 0 28-2 30-35 27-114-8-270-6-291 4-112 54-141 69-154 84-15 16-11 16 41-1 132-44 281-28 394 42 43 26 51 36 48 58-4 34-46 41-73 11-10-11-23-20-29-20-6-1-29-9-51-20-61-29-204-28-287 4-56 21-162 79-113 61 47-17 142-17 205-1 111 29 186 90 254 208 33 58 32 92-5 96-21 2-29-4-45-35-20-41-79-120-104-141-8-7-36-24-62-37-40-21-61-25-134-25-107 0-201 29-210 65-3 13-19 36-35 51-27 26-37 29-99 29-77 0-115-19-138-71-32-71-248-102-350-50-57 29-118 92-157 164-21 38-34 52-50 52-12 0-25-3-28-7zm735-198c-2-19 1-42 8-50 10-12 10-18 1-29-7-9-11-42-9-87 2-55 7-74 21-83 12-8 22-8 35 0 18 12 20 29 8 79-4 20-2 37 7 49 13 18 17 13 52-59 30-61 60-101 131-175 116-120 126-133 155-200 20-46 24-71 24-160V724l-52-65c-57-72-97-142-115-201-9-30-21-44-49-59-64-32-72-28-121 68-39 77-71 183-80 262-7 55-68 48-68-7 0-54-39-189-72-247-6-11-21-37-32-58-22-42-42-46-95-18-27 14-39 31-57 80-25 67-78 152-127 203-30 33-30 33-31 148 0 106 3 120 29 174 19 41 61 94 134 170 82 85 115 129 145 189 21 42 40 77 42 77s8-9 14-20c8-14 8-32 0-61-9-31-8-44 1-55 18-21 51-13 66 16 17 34 16 111-2 137-13 19-13 25 3 52 14 25 15 34 4 51-11 18-10 20 11 20 20 0 23-4 19-35zM400 510c15-30 35-88 45-128 17-68 17-74 0-117-26-69-46-74-112-30-53 35-59 37-122 33-36-3-73-8-81-12-10-4-25 2-39 15-21 20-23 28-17 76 11 98 86 163 188 163 67 0 83 14 75 68l-6 37 21-25c11-14 33-50 48-80zm834 65c-9-51 7-65 74-65 102 0 177-65 188-163 6-48 4-56-17-76-14-13-29-19-39-15-8 4-43 9-78 12-59 4-67 2-122-32-71-44-89-39-115 28-16 43-16 49 0 118 18 75 52 151 88 200 11 15 22 28 24 28s1-16-3-35zM746 394c-3-8-12-14-20-14-14 0-13 5 2 34 14 28 18 30 20 14 2-11 1-26-2-34zm108-13c-2-2-10-1-19 2-9 4-15 19-15 39v33l19-35c10-19 17-37 15-39zM290 174c45-30 44-39-3-48-35-6-85 7-125 32l-24 15 29 13c44 20 80 16 123-12zm1114 13l29-13-29-19c-32-21-140-33-155-18-14 14 60 62 96 62 17 0 43-5 59-12z"/>
    <path d="M575 1050c-10-11-26-20-35-20-31 0-70-39-70-70 0-22-5-29-22-32-15-2-24-11-26-25-5-31 30-46 90-41 38 4 57 12 80 35 37 37 54 103 36 140-17 35-30 38-53 13zM952 1058c-31-40-18-116 27-161 25-26 40-31 88-35 45-3 62 0 72 11 18 23 10 51-17 55-16 3-22 10-22 28 0 29-41 74-68 74-10 0-27 9-37 20-21 23-29 25-43 8zM2850 1463c-92-31-151-100-120-138 20-24 43-18 78 19 22 24 43 35 69 38 47 6 103-6 114-24 13-20 11-72-3-90s-96-48-132-48c-12 0-41-16-64-36-78-66-77-149 4-210 33-26 46-29 109-29s76 3 108 28c21 16 45 39 54 53 14 23 14 26-2 44-24 26-28 25-70-11-43-38-99-48-143-25-24 12-32 23-32 44 0 15 4 32 8 38 8 14 94 44 123 44 30 0 73 25 103 60 22 26 26 41 26 92 0 50-4 65-26 92-15 17-43 39-63 48-34 16-109 22-141 11zM3256 1455c-145-51-170-242-44-335 51-37 143-41 200-7 69 40 92 91 96 215 3 71 1 107-8 117-16 19-59 20-66 1-4-11-14-10-55 5-58 22-71 23-123 4zm124-88c27-22 50-66 50-96 0-45-57-101-103-101-52 0-84 15-102 49-25 50-18 97 23 144 18 20 108 23 132 4zM3936 1456c-145-54-171-244-44-336 35-25 50-30 101-30 71 0 118 26 162 89 25 37 26 43 23 157l-3 119-26 3c-14 2-31-4-38-12-11-13-17-14-40-2-43 23-93 27-135 12zm133-100c30-32 38-94 17-135-20-38-57-54-109-48-93 12-122 112-55 185 31 33 115 32 147-2zM4630 1464c-56-19-94-42-117-73-25-32-28-44-28-116 0-92 15-121 86-163 57-34 148-29 201 11 123 94 91 289-56 332-52 16-61 17-86 9zm117-123c67-99-31-210-141-160-16 7-32 28-41 53-18 47-10 84 28 124 18 19 30 22 76 20 50-3 57-6 78-37zM5150 1451c-15-28-12-46 8-64 37-34 82-15 82 33 0 14-5 31-12 38-19 19-66 15-78-7zM1975 1448c-3-8-4-87-3-177 3-143 5-165 21-175 12-8 22-8 35 0 15 10 17 30 17 185v174l-33 3c-20 2-34-2-37-10zM2151 1446c-8-9-11-65-9-176 3-140 5-164 20-173 12-8 24-7 43 3s28 11 37 2c7-7 39-12 73-12 52 0 67 4 101 30 54 39 74 100 74 224 0 97-7 116-45 116-39 0-45-18-45-136 0-110-1-113-26-133-44-35-124-26-143 15-6 14-11 71-11 127 0 105-7 127-41 127-9 0-22-6-28-14zM3577 1453c-13-12-8-338 5-351 17-17 47-15 54 3 5 12 9 12 29-1 32-21 124-15 139 9 20 31-4 51-68 57-80 7-86 18-86 148 0 57-5 112-10 123-10 18-50 26-63 12zM4323 1440c-46-28-53-48-53-159v-100l-26-3c-15-2-32-11-38-20-15-25 3-52 38-56 25-3 26-6 26-58 0-41 4-56 16-61 31-12 49 11 52 66 3 51 3 51 36 51 39 0 59 19 54 52-2 19-10 23-45 26l-43 3v72c0 90 15 121 57 125 43 4 59 25 45 57-9 20-19 25-49 25-21 0-52-9-70-20zM4986 1429c-14-17-26-35-26-40 0-9-56-132-91-200-22-42-24-70-7-87 30-30 47-13 105 109l57 121 44-94c63-138 66-143 85-146 23-5 47 15 47 38 0 9-17 52-38 96-66 134-82 171-82 181 0 13-43 53-57 53-6 0-23-14-37-31zM1969 1033c-15-40 3-73 39-73 51 0 71 50 34 83-29 26-61 21-73-10zM2510 801c-55-17-87-41-108-83-20-39-22-55-20-162 3-100 6-121 21-130 12-8 22-8 35 0 14 9 18 31 22 125 3 63 9 122 14 132 10 21 57 47 86 47 27 0 77-29 87-49 4-9 10-70 13-136 5-118 5-120 29-123 45-7 51 17 51 193 0 112-4 165-12 173-15 15-50 16-65 1-9-9-21-8-46 5-37 17-67 19-107 7zM3280 794c-138-49-175-233-67-333 55-50 181-58 229-14 16 14 17 10 20-78 3-90 4-94 26-97 48-7 52 7 52 193 0 104-5 185-12 206-35 104-147 159-248 123zm110-77c31-16 70-73 70-103 0-60-60-124-115-124-31 0-81 30-98 59-29 50-22 95 21 141 42 43 75 51 122 27zM1950 781c-6-12-10-109-10-246s4-234 10-246c10-17 22-19 121-19 90 0 117 4 149 20 70 36 96 130 53 188l-21 29 31 32c30 29 32 36 32 99 0 55-4 73-23 97-43 54-74 64-209 65-111 0-123-2-133-19zm265-86c31-30 32-73 4-109-19-25-25-26-110-26h-89v160h85c78 0 88-2 110-25zm-10-255c12-23 13-35 5-50-17-31-43-40-119-40h-71v120h85c84 0 85 0 100-30zM2841 786c-8-9-11-66-9-181 3-147 5-169 21-179 12-8 22-8 35 0 15 10 17 32 20 179 3 173-2 195-38 195-10 0-23-6-29-14z"/>
    <path d="M3042 785c-47-34-52-59-52-283 0-218 3-232 45-232s45 14 45 232v208l36 15c30 12 35 19 32 42-3 25-8 28-43 31-25 2-49-3-63-13zM2832 368c-37-37 11-98 62-79 20 8 26 17 26 39 0 35-16 52-50 52-14 0-31-5-38-12z"/>
  </g>
</svg>
